# This file uses centimeters as units for non-parametric coordinates.

mtllib lanternLP.mtl
g default
v -0.504343 0.359470 0.459065
v 0.502211 0.359470 0.459065
v -0.504343 0.437419 0.459065
v 0.502211 0.437419 0.459065
v -0.504343 0.437419 -0.457596
v 0.502211 0.437419 -0.457596
v -0.504343 0.359470 -0.457596
v 0.502211 0.359470 -0.457596
v 0.401555 0.359470 0.459065
v 0.401555 0.359470 -0.457596
v 0.401555 0.437419 -0.457596
v 0.401555 0.437419 0.459065
v -0.403687 0.359470 0.459065
v -0.403687 0.359470 -0.457596
v -0.403687 0.437419 -0.457596
v -0.403687 0.437419 0.459065
v -0.504343 0.437419 0.367398
v -0.280614 0.613075 0.255317
v 0.278483 0.613075 0.255317
v 0.502211 0.437419 0.367398
v 0.502211 0.359470 0.367398
v 0.401555 0.309919 0.367398
v -0.403687 0.309919 0.367398
v -0.504343 0.359470 0.367398
v -0.504343 0.359470 -0.365930
v -0.403687 0.309919 -0.365930
v 0.401555 0.309919 -0.365930
v 0.502211 0.359470 -0.365930
v 0.502211 0.437419 -0.365930
v 0.278483 0.613075 -0.253848
v -0.280614 0.613075 -0.253848
v -0.504343 0.437419 -0.365930
v -0.364619 -0.533459 0.331820
v 0.362487 -0.533459 0.331820
v -0.364619 -0.442113 0.331820
v 0.362487 -0.442113 0.331820
v -0.364619 -0.442113 -0.330351
v 0.362487 -0.442113 -0.330351
v -0.364619 -0.533459 -0.330351
v 0.362487 -0.533459 -0.330351
v -0.277359 -0.615439 -0.250882
v 0.275227 -0.615439 -0.250882
v 0.275227 -0.615439 0.252351
v -0.277359 -0.615439 0.252351
v -0.364619 -0.533459 -0.264133
v -0.277359 -0.615439 -0.200560
v 0.275227 -0.615439 -0.200560
v 0.362487 -0.533459 -0.264133
v 0.362487 -0.442113 -0.264133
v -0.364619 -0.442113 -0.264133
v -0.364619 -0.442113 0.265602
v 0.362487 -0.442113 0.265602
v 0.362487 -0.533459 0.265602
v 0.275227 -0.615439 0.202028
v -0.277359 -0.615439 0.202028
v -0.364619 -0.533459 0.265602
v -0.291909 -0.533459 0.331820
v -0.222100 -0.615439 0.252351
v -0.222100 -0.615439 0.202028
v -0.222100 -0.615439 -0.200560
v -0.222100 -0.615439 -0.250882
v -0.291909 -0.533459 -0.330351
v -0.291909 -0.442113 -0.330351
v -0.291909 -0.395149 -0.264133
v -0.291909 -0.395149 0.265602
v -0.291909 -0.442113 0.331820
v 0.219968 -0.615439 0.202028
v 0.219968 -0.615439 0.252351
v 0.289777 -0.533459 0.331820
v 0.289777 -0.442113 0.331820
v 0.289777 -0.395149 0.265602
v 0.289777 -0.395149 -0.264133
v 0.289777 -0.442113 -0.330351
v 0.289777 -0.533459 -0.330351
v 0.219968 -0.615439 -0.250882
v 0.219968 -0.615439 -0.200560
vt 0.491753 0.776742
vt 0.926637 0.477726
vt 0.950527 0.480912
vt 0.468040 0.779035
vt 0.458569 0.464644
vt 0.526499 0.533484
vt 0.525748 0.688490
vt 0.457434 0.756506
vt 0.875216 0.686027
vt 0.493484 0.444903
vt 0.469248 0.442954
vt 0.851327 0.689222
vt 0.896644 0.667116
vt 0.827437 0.686042
vt 0.974416 0.477723
vt 0.995849 0.458817
vt 0.750209 0.465729
vt 0.970755 0.888510
vt 0.833524 0.256415
vt 0.769215 0.723823
vt 0.902739 0.237515
vt 0.992195 0.869612
vt 0.922976 0.888496
vt 0.715452 0.445700
vt 0.680945 0.689258
vt 0.681724 0.534247
vt 0.713915 0.778092
vt 0.881303 0.256418
vt 0.739702 0.443958
vt 0.946865 0.891691
vt 0.857413 0.259604
vt 0.737588 0.780687
vt 0.048529 0.723340
vt 0.933255 0.225684
vt 0.874689 0.004376
vt 0.048529 0.506764
vt 0.868505 0.433987
vt 0.356579 0.723340
vt 0.356579 0.506764
vt 0.929684 0.636456
vt 0.120258 0.532755
vt 0.284851 0.532755
vt 0.284851 0.697348
vt 0.120258 0.697348
vt 0.094266 0.769077
vt 0.310842 0.769077
vt 0.833990 0.433998
vt 0.967769 0.225682
vt 0.964198 0.636467
vt 0.310842 0.461026
vt 0.094266 0.461026
vt 0.840175 0.004374
vt 0.305424 0.697348
vt 0.305424 0.532755
vt 0.120258 0.717923
vt 0.284851 0.717923
vt 0.099684 0.697348
vt 0.099684 0.532755
vt 0.284851 0.512181
vt 0.120258 0.512181
vt 0.910116 0.647951
vt 0.820610 0.015873
vt 0.913691 0.237186
vt 0.814430 0.445505
vt 0.356579 0.479692
vt 0.305424 0.512181
vt 0.356579 0.750412
vt 0.305424 0.717923
vt 0.851248 0.436296
vt 0.946940 0.638764
vt 0.048529 0.750412
vt 0.950512 0.227986
vt 0.099684 0.717923
vt 0.067194 0.461026
vt 0.099684 0.512181
vt 0.857432 0.006678
vt 0.055390 0.362333
vt 0.010103 0.362333
vt 0.771667 0.441746
vt 0.360920 0.362333
vt 0.492633 0.417000
vt 0.360920 0.407620
vt 0.360920 0.056803
vt 0.406207 0.056803
vt 0.435352 0.778674
vt 0.055390 0.056803
vt 0.746593 0.801867
vt 0.458791 0.800098
vt 0.714555 0.806373
vt 0.055390 0.011516
vt 0.461787 0.419764
vt 0.747347 0.420842
vt 0.753673 0.060193
vt 0.802351 0.060193
vt 0.004502 0.723340
vt 0.454924 0.060193
vt 0.400606 0.750412
vt 0.454924 0.011516
vt 0.067194 0.813104
vt 0.454924 0.358943
vt 0.406246 0.358943
vt 0.400606 0.506764
vt 0.753673 0.358943
vt 0.753673 0.407620
vt 0.094266 0.417000
vt 0.310842 0.813104
vt 0.337914 0.417000
vt 0.004502 0.479692
vt 0.888073 0.445482
vt 0.805997 0.667144
vt 0.987334 0.237182
vt 0.905202 0.458823
vt 0.894252 0.015879
vt 0.812091 0.237509
vt 0.983759 0.647973
vt 0.901548 0.869585
vt 0.004502 0.506764
vt 0.406246 0.060193
vt 0.802351 0.358943
vt 0.400606 0.723340
vt 0.454924 0.407620
vt 0.310842 0.417000
vt 0.094266 0.813104
vt 0.753673 0.011516
vt 0.048529 0.479692
vt 0.067194 0.769077
vt 0.337914 0.769077
vt 0.337914 0.461026
vt 0.337914 0.813104
vt 0.400606 0.479692
vt 0.004502 0.750412
vt 0.067194 0.417000
vt 0.410248 0.498797
vt 0.010103 0.056803
vt 0.406207 0.362333
vt 0.797191 0.723964
vt 0.360920 0.011516
vt 0.490764 0.804927
vt 0.716510 0.417905
vt 0.055390 0.407620
vt 0.770337 0.500570
vt 0.798313 0.500711
vt 0.438223 0.498933
vt 0.437303 0.440482
vt 0.770286 0.780721
vt 0.748476 0.758281
vt 0.437141 0.722184
vt 0.409165 0.722048
vn 0.000000 0.000000 1.000000
vn 0.000000 0.000000 1.000000
vn 0.000000 0.000000 1.000000
vn 0.000000 0.000000 1.000000
vn 0.577436 0.813649 -0.067407
vn 0.205765 0.952161 -0.225943
vn 0.205765 0.952161 0.225943
vn 0.577436 0.813649 0.067406
vn 0.000000 0.000000 -1.000000
vn 0.000000 0.000000 -1.000000
vn 0.000000 0.000000 -1.000000
vn 0.000000 0.000000 -1.000000
vn 0.049098 -0.997338 -0.053912
vn 0.441668 -0.897178 0.000000
vn 0.441668 -0.897178 0.000000
vn 0.049097 -0.997338 0.053912
vn 1.000000 0.000000 0.000000
vn 1.000000 0.000000 0.000000
vn 1.000000 0.000000 0.000000
vn 1.000000 0.000000 0.000000
vn -1.000000 0.000000 0.000000
vn -1.000000 0.000000 0.000000
vn -1.000000 0.000000 0.000000
vn -1.000000 0.000000 0.000000
vn -0.049097 -0.997338 0.053912
vn -0.049098 -0.997338 -0.053912
vn 0.000000 0.000000 -1.000000
vn 0.000000 0.000000 -1.000000
vn -0.205765 0.952161 0.225943
vn -0.205765 0.952161 -0.225943
vn 0.000000 0.000000 1.000000
vn 0.000000 0.000000 1.000000
vn -0.441668 -0.897178 0.000000
vn -0.441668 -0.897178 0.000000
vn 0.000000 0.000000 -1.000000
vn 0.000000 0.000000 -1.000000
vn -0.577436 0.813649 -0.067407
vn -0.577436 0.813649 0.067406
vn 0.000000 0.000000 1.000000
vn 0.000000 0.000000 1.000000
vn -0.339136 0.863893 0.372392
vn -0.059405 0.787384 0.613594
vn 0.059405 0.787384 0.613594
vn 0.339136 0.863893 0.372392
vn 1.000000 0.000000 0.000000
vn 1.000000 0.000000 0.000000
vn 0.000000 -0.879700 0.475530
vn 0.000000 -0.879700 0.475530
vn -1.000000 0.000000 0.000000
vn -1.000000 0.000000 0.000000
vn 0.000000 -0.879697 -0.475535
vn 0.000000 -0.879697 -0.475535
vn 1.000000 0.000000 0.000000
vn 1.000000 0.000000 0.000000
vn 0.059404 0.787384 -0.613594
vn 0.339134 0.863893 -0.372395
vn -0.059404 0.787384 -0.613594
vn -0.339134 0.863893 -0.372394
vn -1.000000 0.000000 0.000000
vn -1.000000 0.000000 0.000000
vn 0.000000 -0.343494 0.939155
vn 0.000000 -0.082279 0.996609
vn 0.000000 -0.082279 0.996609
vn 0.000000 -0.343494 0.939155
vn 0.000000 -0.082279 -0.996609
vn 0.000000 -0.343494 -0.939155
vn 0.000000 -0.343494 -0.939155
vn 0.000000 -0.082279 -0.996609
vn 0.000000 -1.000000 0.000000
vn 0.000000 -1.000000 0.000000
vn 0.000000 -1.000000 0.000000
vn 0.000000 -1.000000 0.000000
vn 0.927960 -0.372679 0.000000
vn 0.927960 -0.372679 0.000000
vn 0.995916 -0.090285 0.000000
vn 0.995916 -0.090285 0.000000
vn -0.995916 -0.090285 0.000000
vn -0.927960 -0.372679 0.000000
vn -0.927960 -0.372679 0.000000
vn -0.995916 -0.090285 0.000000
vn 0.000000 -0.696022 -0.718021
vn 0.000000 -0.696022 -0.718021
vn 0.684712 -0.728814 0.000000
vn 0.684712 -0.728814 0.000000
vn 0.000000 -0.696022 0.718021
vn 0.000000 -0.696022 0.718021
vn -0.684711 -0.728814 0.000000
vn -0.684711 -0.728814 0.000000
vn -0.064295 0.995430 -0.070600
vn -0.064295 0.995430 0.070600
vn 0.064295 0.995430 0.070600
vn 0.064295 0.995430 -0.070600
vn -0.941700 -0.336455 0.000000
vn -0.684711 -0.728814 0.000000
vn 0.000000 -1.000000 0.000000
vn 0.000000 -1.000000 0.000000
vn 0.941700 -0.336455 0.000000
vn 0.684712 -0.728814 0.000000
vn 0.987411 -0.158173 0.000000
vn 0.000000 0.815676 -0.578509
vn 0.000000 0.815676 -0.578509
vn -0.987411 -0.158173 0.000000
vn 0.000000 0.815676 0.578509
vn 0.000000 0.815676 0.578509
vn 0.941700 -0.336455 0.000000
vn 0.987411 -0.158173 0.000000
vn 0.684711 -0.728814 0.000000
vn 0.000000 -1.000000 0.000000
vn 0.000000 -1.000000 0.000000
vn -0.941700 -0.336455 0.000000
vn -0.684711 -0.728814 0.000000
vn -0.987411 -0.158173 0.000000
vn 0.000000 -0.309416 0.950927
vn 0.000000 -0.696022 0.718021
vn 0.000000 -1.000000 0.000000
vn 0.000000 -1.000000 0.000000
vn 0.000000 -1.000000 0.000000
vn 0.000000 -1.000000 0.000000
vn 0.000000 -0.309416 -0.950927
vn 0.000000 -0.696022 -0.718021
vn 0.000000 -0.144355 -0.989526
vn -0.542566 0.840014 0.000000
vn -0.542566 0.840014 0.000000
vn 0.000000 -0.144355 0.989526
vn 0.000000 -1.000000 0.000000
vn 0.000000 -1.000000 0.000000
vn 0.000000 -0.309416 0.950927
vn 0.000000 -0.696022 0.718021
vn 0.000000 -0.144355 0.989526
vn 0.542566 0.840014 0.000000
vn 0.542566 0.840014 0.000000
vn 0.000000 -0.144355 -0.989526
vn 0.000000 -0.309416 -0.950927
vn 0.000000 -0.696022 -0.718021
vn 0.000000 -1.000000 0.000000
vn 0.000000 -1.000000 0.000000
vn 0.002004 0.134241 0.990947
vn 0.002004 0.134241 0.990947
vn 0.002004 0.134241 0.990947
vn 0.002004 0.134241 0.990947
vn 0.989114 0.147132 0.002411
vn 0.989114 0.147132 0.002411
vn 0.989114 0.147132 0.002411
vn 0.989114 0.147132 0.002411
vn 0.000000 -0.156779 -0.987634
vn 0.000000 -0.156779 -0.987634
vn -0.985146 -0.171720 0.000000
vn -0.985146 -0.171720 0.000000
vn 0.000000 -0.156779 0.987634
vn 0.000000 -0.156779 0.987634
vn 0.989114 0.147132 -0.002411
vn 0.989114 0.147132 -0.002411
vn 0.989114 0.147132 -0.002411
vn 0.989114 0.147132 -0.002411
vn 0.002003 0.134239 -0.990947
vn 0.002003 0.134239 -0.990947
vn 0.002003 0.134239 -0.990947
vn 0.002003 0.134239 -0.990947
vn -0.985146 -0.171720 0.000000
vn -0.985146 -0.171720 0.000000
vn -0.002003 0.134239 -0.990947
vn -0.002003 0.134239 -0.990947
vn -0.002003 0.134239 -0.990947
vn -0.002003 0.134239 -0.990947
vn -0.989114 0.147132 -0.002411
vn -0.989114 0.147132 -0.002411
vn -0.989114 0.147132 -0.002411
vn -0.989114 0.147132 -0.002411
vn 0.000000 -0.156779 0.987634
vn 0.000000 -0.156779 0.987634
vn 0.985146 -0.171720 0.000000
vn 0.985146 -0.171720 0.000000
vn -0.989114 0.147132 0.002411
vn -0.989114 0.147132 0.002411
vn -0.989114 0.147132 0.002411
vn -0.989114 0.147132 0.002411
vn -0.002004 0.134241 0.990947
vn -0.002004 0.134241 0.990947
vn -0.002004 0.134241 0.990947
vn -0.002004 0.134241 0.990947
vn 0.985146 -0.171720 0.000000
vn 0.985146 -0.171720 0.000000
vn 0.000000 -0.156779 -0.987634
vn 0.000000 -0.156779 -0.987634
s 1
g lantern1
usemtl initialShadingGroup
f 12/1/1 9/138/2 2/88/3 4/4/4
s 2
f 29/143/5 30/6/6 19/7/7 20/147/8
s 3
f 10/81/9 11/10/10 6/11/11 8/91/12
s 4
f 27/77/13 28/78/14 21/134/15 22/86/16
s 5
f 21/148/17 28/133/18 29/143/19 20/147/20
s 6
f 32/141/21 25/142/22 24/136/23 17/20/24
s 4
f 27/77/13 22/86/16 23/83/25 26/80/26
s 3
f 11/10/10 10/81/9 14/139/27 15/24/28
s 2
f 18/25/29 19/7/7 30/6/6 31/26/30
s 1
f 9/138/2 12/1/1 16/27/31 13/89/32
s 4
f 24/84/33 25/135/34 26/80/26 23/83/25
s 3
f 5/29/35 15/24/28 14/139/27 7/92/36
s 2
f 18/25/29 31/26/30 32/141/37 17/20/38
s 1
f 1/87/39 13/89/32 16/27/31 3/32/40
s 2
f 3/32/41 16/27/42 18/25/29 17/146/38
f 16/27/42 12/1/43 19/7/7 18/25/29
f 20/8/8 19/7/7 12/1/43 4/4/44
s 5
f 2/88/45 21/85/17 20/8/20 4/4/46
s 4
f 22/86/16 9/90/47 13/137/48 23/83/25
s 6
f 17/146/24 24/145/23 1/87/49 3/32/50
s 4
f 14/82/51 10/140/52 27/77/13 26/80/26
s 5
f 29/5/19 28/144/18 8/91/53 6/11/54
s 2
f 11/10/55 30/6/6 29/5/5 6/11/56
f 30/6/6 11/10/55 15/24/57 31/26/30
f 32/17/37 31/26/30 15/24/57 5/29/58
s 6
f 7/92/59 25/79/22 32/17/21 5/29/60
s 7
f 69/33/61 70/95/62 66/117/63 57/36/64
s 8
f 73/120/65 74/38/66 62/39/67 63/102/68
s 9
f 59/41/69 60/42/70 76/43/71 67/44/72
s 10
f 53/45/73 48/46/74 49/106/75 52/123/76
s 11
f 50/122/77 45/50/78 56/51/79 51/105/80
s 8
f 74/38/66 75/53/81 61/54/82 62/39/67
s 10
f 54/55/83 47/56/84 48/46/74 53/45/73
s 7
f 68/57/85 69/33/61 57/36/64 58/58/86
s 11
f 56/51/79 45/50/78 46/59/87 55/60/88
s 12
f 64/103/89 65/100/90 71/96/91 72/93/92
s 11
f 46/59/87 45/50/78 39/128/93 41/66/94
s 9
f 75/53/95 76/43/71 60/42/70 61/54/96
s 10
f 40/127/97 48/46/74 47/56/84 42/68/98
f 49/106/75 48/46/74 40/127/97 38/129/99
s 12
f 64/103/89 72/93/92 73/94/100 63/119/101
s 11
f 39/128/93 45/50/78 50/122/77 37/107/102
s 12
f 70/118/103 71/96/91 65/100/90 66/101/104
s 10
f 34/126/105 53/45/73 52/123/76 36/99/106
f 54/55/83 53/45/73 34/126/105 43/73/107
s 9
f 59/41/69 67/44/72 68/57/108 58/58/109
s 11
f 33/74/110 56/51/79 55/60/88 44/75/111
f 51/105/80 56/51/79 33/74/110 35/132/112
s 7
f 58/58/86 57/36/64 33/125/113 44/75/114
s 9
f 55/60/115 59/41/69 58/58/109 44/75/116
f 55/60/115 46/59/117 60/42/70 59/41/69
f 41/66/118 61/54/96 60/42/70 46/59/117
s 8
f 39/65/119 62/39/67 61/54/82 41/66/120
f 37/130/121 63/102/68 62/39/67 39/65/119
s 12
f 64/103/89 50/104/122 51/121/123 65/100/90
s 7
f 33/125/113 57/36/64 66/117/63 35/108/124
s 9
f 68/57/108 67/44/72 54/55/125 43/73/126
s 7
f 34/71/127 69/33/61 68/57/85 43/73/128
f 70/95/62 69/33/61 34/71/127 36/131/129
s 12
f 52/98/130 49/124/131 72/93/92 71/96/91
s 8
f 74/38/66 73/120/65 38/97/132 40/67/133
f 75/53/81 74/38/66 40/67/133 42/68/134
s 9
f 47/56/135 76/43/71 75/53/95 42/68/136
f 67/44/72 76/43/71 47/56/135 54/55/125
s off
f 50/49/137 64/115/138 26/22/139 25/18/140
f 64/61/141 63/40/142 14/23/143 26/116/144
s 8
f 63/40/68 37/70/121 7/30/145 14/23/146
s 11
f 37/70/102 50/49/77 25/18/147 7/30/148
s 7
f 35/76/124 66/35/63 13/28/149 1/31/150
s off
f 66/35/151 65/113/152 23/21/153 13/28/154
f 65/62/155 51/52/156 24/19/157 23/114/158
s 11
f 51/52/80 35/76/112 1/31/159 24/19/160
s off
f 52/48/161 71/111/162 22/16/163 21/15/164
f 71/63/165 70/34/166 9/2/167 22/112/168
s 7
f 70/34/62 36/72/129 2/3/169 9/2/170
s 10
f 36/72/106 52/48/76 21/15/171 2/3/172
s off
f 73/37/173 72/109/174 27/13/175 10/9/176
f 72/64/177 49/47/178 28/14/179 27/110/180
s 10
f 49/47/75 38/69/99 8/12/181 28/14/182
s 8
f 38/69/132 73/37/65 10/9/183 8/12/184
